solid Untitled-54409253
facet normal 0.0 0.0 1.0
  outer loop
    vertex 0.0 728.5189150240668 49.167265172227715
    vertex -50.0 743.5189150240669 49.167265172227715
    vertex -50.0 728.5189150240668 49.167265172227715
  endloop
endfacet
facet normal 0.0 0.0 1.0
  outer loop
    vertex -50.0 743.5189150240669 49.167265172227715
    vertex 0.0 728.5189150240668 49.167265172227715
    vertex 0.0 743.5189150240669 49.167265172227715
  endloop
endfacet
facet normal 1.0 -0.0 -0.0
  outer loop
    vertex 0.0 703.5189150240668 44.167265172227715
    vertex 0.0 728.5189150240668 49.167265172227715
    vertex 0.0 713.5189150240668 119.16726517222772
  endloop
endfacet
facet normal 1.0 -0.0 -0.0
  outer loop
    vertex 0.0 728.5189150240668 49.167265172227715
    vertex 0.0 703.5189150240668 44.167265172227715
    vertex 0.0 748.5189150240669 44.167265172227715
  endloop
endfacet
facet normal 1.0 -0.0 -0.0
  outer loop
    vertex 0.0 713.5189150240668 119.16726517222772
    vertex 0.0 728.5189150240668 49.167265172227715
    vertex 0.0 718.5189150240669 119.16726517222772
  endloop
endfacet
facet normal 1.0 -0.0 -0.0
  outer loop
    vertex 0.0 728.5189150240668 49.167265172227715
    vertex 0.0 748.5189150240669 44.167265172227715
    vertex 0.0 743.5189150240669 49.167265172227715
  endloop
endfacet
facet normal 1.0 -0.0 -0.0
  outer loop
    vertex 0.0 743.5189150240669 49.167265172227715
    vertex 0.0 748.5189150240669 44.167265172227715
    vertex 0.0 743.5189150240669 54.167265172227715
  endloop
endfacet
facet normal 1.0 -0.0 -0.0
  outer loop
    vertex 0.0 743.5189150240669 54.167265172227715
    vertex 0.0 748.5189150240669 44.167265172227715
    vertex 0.0 748.5189150240669 54.167265172227715
  endloop
endfacet
facet normal -0.0 -1.0 -0.0
  outer loop
    vertex 0.0 743.5189150240669 54.167265172227715
    vertex -50.0 743.5189150240669 49.167265172227715
    vertex 0.0 743.5189150240669 49.167265172227715
  endloop
endfacet
facet normal -0.0 -1.0 -0.0
  outer loop
    vertex -50.0 743.5189150240669 49.167265172227715
    vertex 0.0 743.5189150240669 54.167265172227715
    vertex -50.0 743.5189150240669 54.167265172227715
  endloop
endfacet
facet normal 0.0 0.0 0.9999999999999999
  outer loop
    vertex 0.0 743.5189150240669 54.167265172227715
    vertex -50.0 748.5189150240669 54.167265172227715
    vertex -50.0 743.5189150240669 54.167265172227715
  endloop
endfacet
facet normal 0.0 0.0 0.9999999999999999
  outer loop
    vertex -50.0 748.5189150240669 54.167265172227715
    vertex 0.0 743.5189150240669 54.167265172227715
    vertex 0.0 748.5189150240669 54.167265172227715
  endloop
endfacet
facet normal 0.0 1.0 -0.0
  outer loop
    vertex -50.0 748.5189150240669 54.167265172227715
    vertex 0.0 748.5189150240669 44.167265172227715
    vertex -50.0 748.5189150240669 44.167265172227715
  endloop
endfacet
facet normal 0.0 1.0 -0.0
  outer loop
    vertex 0.0 748.5189150240669 44.167265172227715
    vertex -50.0 748.5189150240669 54.167265172227715
    vertex 0.0 748.5189150240669 54.167265172227715
  endloop
endfacet
facet normal 0.0 0.0 -1.0
  outer loop
    vertex 0.0 748.5189150240669 44.167265172227715
    vertex -50.0 703.5189150240668 44.167265172227715
    vertex -50.0 748.5189150240669 44.167265172227715
  endloop
endfacet
facet normal 0.0 0.0 -1.0
  outer loop
    vertex -50.0 703.5189150240668 44.167265172227715
    vertex 0.0 748.5189150240669 44.167265172227715
    vertex 0.0 703.5189150240668 44.167265172227715
  endloop
endfacet
facet normal 0.0 -0.9912279006826347 0.1321637200910177
  outer loop
    vertex 0.0 713.5189150240668 119.16726517222772
    vertex -50.0 703.5189150240668 44.167265172227715
    vertex 0.0 703.5189150240668 44.167265172227715
  endloop
endfacet
facet normal 0.0 -0.9912279006826347 0.1321637200910177
  outer loop
    vertex -50.0 703.5189150240668 44.167265172227715
    vertex 0.0 713.5189150240668 119.16726517222772
    vertex -50.0 713.5189150240668 119.16726517222772
  endloop
endfacet
facet normal 0.0 0.0 0.9999999999999999
  outer loop
    vertex 0.0 713.5189150240668 119.16726517222772
    vertex -50.0 718.5189150240669 119.16726517222772
    vertex -50.0 713.5189150240668 119.16726517222772
  endloop
endfacet
facet normal 0.0 0.0 0.9999999999999999
  outer loop
    vertex -50.0 718.5189150240669 119.16726517222772
    vertex 0.0 713.5189150240668 119.16726517222772
    vertex 0.0 718.5189150240669 119.16726517222772
  endloop
endfacet
facet normal 0.0 0.9899494936611666 0.14142135623730925
  outer loop
    vertex -50.0 718.5189150240669 119.16726517222772
    vertex 0.0 728.5189150240668 49.167265172227715
    vertex -50.0 728.5189150240668 49.167265172227715
  endloop
endfacet
facet normal 0.0 0.9899494936611666 0.14142135623730925
  outer loop
    vertex 0.0 728.5189150240668 49.167265172227715
    vertex -50.0 718.5189150240669 119.16726517222772
    vertex 0.0 718.5189150240669 119.16726517222772
  endloop
endfacet
facet normal -1.0 -0.0 -0.0
  outer loop
    vertex -50.0 748.5189150240669 54.167265172227715
    vertex -50.0 743.5189150240669 49.167265172227715
    vertex -50.0 743.5189150240669 54.167265172227715
  endloop
endfacet
facet normal -1.0 -0.0 -0.0
  outer loop
    vertex -50.0 703.5189150240668 44.167265172227715
    vertex -50.0 728.5189150240668 49.167265172227715
    vertex -50.0 748.5189150240669 44.167265172227715
  endloop
endfacet
facet normal -1.0 -0.0 -0.0
  outer loop
    vertex -50.0 728.5189150240668 49.167265172227715
    vertex -50.0 703.5189150240668 44.167265172227715
    vertex -50.0 713.5189150240668 119.16726517222772
  endloop
endfacet
facet normal -1.0 -0.0 -0.0
  outer loop
    vertex -50.0 728.5189150240668 49.167265172227715
    vertex -50.0 713.5189150240668 119.16726517222772
    vertex -50.0 718.5189150240669 119.16726517222772
  endloop
endfacet
facet normal -1.0 -0.0 -0.0
  outer loop
    vertex -50.0 748.5189150240669 44.167265172227715
    vertex -50.0 728.5189150240668 49.167265172227715
    vertex -50.0 743.5189150240669 49.167265172227715
  endloop
endfacet
facet normal -1.0 -0.0 -0.0
  outer loop
    vertex -50.0 748.5189150240669 44.167265172227715
    vertex -50.0 743.5189150240669 49.167265172227715
    vertex -50.0 748.5189150240669 54.167265172227715
  endloop
endfacet
endsolid Untitled-54409253
