solid OpenSCAD_Model
  facet normal 0.994522 0.104529 0
    outer loop
      vertex 50 0 2
      vertex 48.9074 10.3956 0
      vertex 48.9074 10.3956 2
    endloop
  endfacet
  facet normal 0.994522 0.104529 0
    outer loop
      vertex 48.9074 10.3956 0
      vertex 50 0 2
      vertex 50 0 0
    endloop
  endfacet
  facet normal -0.994522 0.104529 0
    outer loop
      vertex -50 0 0
      vertex -48.9074 10.3956 2
      vertex -48.9074 10.3956 0
    endloop
  endfacet
  facet normal -0.994522 0.104529 0
    outer loop
      vertex -48.9074 10.3956 2
      vertex -50 0 0
      vertex -50 0 2
    endloop
  endfacet
  facet normal 0 1 -0
    outer loop
      vertex 5.22642 49.7261 0
      vertex -5.22642 49.7261 2
      vertex 5.22642 49.7261 2
    endloop
  endfacet
  facet normal 0 1 0
    outer loop
      vertex -5.22642 49.7261 2
      vertex 5.22642 49.7261 0
      vertex -5.22642 49.7261 0
    endloop
  endfacet
  facet normal 0 -1 0
    outer loop
      vertex -5.22642 -49.7261 0
      vertex 5.22642 -49.7261 2
      vertex -5.22642 -49.7261 2
    endloop
  endfacet
  facet normal 0 -1 -0
    outer loop
      vertex 5.22642 -49.7261 2
      vertex -5.22642 -49.7261 0
      vertex 5.22642 -49.7261 0
    endloop
  endfacet
  facet normal 0.587785 0.809017 -0
    outer loop
      vertex 33.4565 37.1572 0
      vertex 25 43.3013 2
      vertex 33.4565 37.1572 2
    endloop
  endfacet
  facet normal 0.587785 0.809017 0
    outer loop
      vertex 25 43.3013 2
      vertex 33.4565 37.1572 0
      vertex 25 43.3013 0
    endloop
  endfacet
  facet normal -0.743145 0.669131 0
    outer loop
      vertex -40.4509 29.3893 0
      vertex -33.4565 37.1572 2
      vertex -33.4565 37.1572 0
    endloop
  endfacet
  facet normal -0.743145 0.669131 0
    outer loop
      vertex -33.4565 37.1572 2
      vertex -40.4509 29.3893 0
      vertex -40.4509 29.3893 2
    endloop
  endfacet
  facet normal -0.866025 0.5 0
    outer loop
      vertex -45.6773 20.3368 0
      vertex -40.4509 29.3893 2
      vertex -40.4509 29.3893 0
    endloop
  endfacet
  facet normal -0.866025 0.5 0
    outer loop
      vertex -40.4509 29.3893 2
      vertex -45.6773 20.3368 0
      vertex -45.6773 20.3368 2
    endloop
  endfacet
  facet normal -0.406737 0.913545 0
    outer loop
      vertex -15.4508 47.5528 0
      vertex -25 43.3013 2
      vertex -15.4508 47.5528 2
    endloop
  endfacet
  facet normal -0.406737 0.913545 0
    outer loop
      vertex -25 43.3013 2
      vertex -15.4508 47.5528 0
      vertex -25 43.3013 0
    endloop
  endfacet
  facet normal 0.866025 0.5 0
    outer loop
      vertex 45.6773 20.3368 2
      vertex 40.4509 29.3893 0
      vertex 40.4509 29.3893 2
    endloop
  endfacet
  facet normal 0.866025 0.5 0
    outer loop
      vertex 40.4509 29.3893 0
      vertex 45.6773 20.3368 2
      vertex 45.6773 20.3368 0
    endloop
  endfacet
  facet normal 0.951057 0.309017 0
    outer loop
      vertex 48.9074 10.3956 2
      vertex 45.6773 20.3368 0
      vertex 45.6773 20.3368 2
    endloop
  endfacet
  facet normal 0.951057 0.309017 0
    outer loop
      vertex 45.6773 20.3368 0
      vertex 48.9074 10.3956 2
      vertex 48.9074 10.3956 0
    endloop
  endfacet
  facet normal 0.743145 0.669131 0
    outer loop
      vertex 40.4509 29.3893 2
      vertex 33.4565 37.1572 0
      vertex 33.4565 37.1572 2
    endloop
  endfacet
  facet normal 0.743145 0.669131 0
    outer loop
      vertex 33.4565 37.1572 0
      vertex 40.4509 29.3893 2
      vertex 40.4509 29.3893 0
    endloop
  endfacet
  facet normal 0.207912 0.978148 -0
    outer loop
      vertex 15.4508 47.5528 0
      vertex 5.22642 49.7261 2
      vertex 15.4508 47.5528 2
    endloop
  endfacet
  facet normal 0.207912 0.978148 0
    outer loop
      vertex 5.22642 49.7261 2
      vertex 15.4508 47.5528 0
      vertex 5.22642 49.7261 0
    endloop
  endfacet
  facet normal 0.406737 0.913545 -0
    outer loop
      vertex 25 43.3013 0
      vertex 15.4508 47.5528 2
      vertex 25 43.3013 2
    endloop
  endfacet
  facet normal 0.406737 0.913545 0
    outer loop
      vertex 15.4508 47.5528 2
      vertex 25 43.3013 0
      vertex 15.4508 47.5528 0
    endloop
  endfacet
  facet normal -0.951057 0.309017 0
    outer loop
      vertex -48.9074 10.3956 0
      vertex -45.6773 20.3368 2
      vertex -45.6773 20.3368 0
    endloop
  endfacet
  facet normal -0.951057 0.309017 0
    outer loop
      vertex -45.6773 20.3368 2
      vertex -48.9074 10.3956 0
      vertex -48.9074 10.3956 2
    endloop
  endfacet
  facet normal 0 0 1
    outer loop
      vertex 3 0 2
      vertex 50 0 2
      vertex 48.9074 10.3956 2
    endloop
  endfacet
  facet normal 0 0 1
    outer loop
      vertex 3 0 2
      vertex 48.9074 10.3956 2
      vertex 45.6773 20.3368 2
    endloop
  endfacet
  facet normal 0 0 1
    outer loop
      vertex 50 0 2
      vertex 3 0 2
      vertex 48.9074 -10.3956 2
    endloop
  endfacet
  facet normal 0 0 1
    outer loop
      vertex 2.42705 1.76336 2
      vertex 45.6773 20.3368 2
      vertex 40.4509 29.3893 2
    endloop
  endfacet
  facet normal 0 0 1
    outer loop
      vertex 48.9074 -10.3956 2
      vertex 3 0 2
      vertex 45.6773 -20.3368 2
    endloop
  endfacet
  facet normal 0 0 1
    outer loop
      vertex 2.42705 1.76336 2
      vertex 40.4509 29.3893 2
      vertex 33.4565 37.1572 2
    endloop
  endfacet
  facet normal -0 0 1
    outer loop
      vertex 2.42705 -1.76336 2
      vertex 45.6773 -20.3368 2
      vertex 3 0 2
    endloop
  endfacet
  facet normal 0 0 1
    outer loop
      vertex 2.42705 1.76336 2
      vertex 33.4565 37.1572 2
      vertex 25 43.3013 2
    endloop
  endfacet
  facet normal 0 0 1
    outer loop
      vertex 45.6773 -20.3368 2
      vertex 2.42705 -1.76336 2
      vertex 40.4509 -29.3893 2
    endloop
  endfacet
  facet normal 0 0 1
    outer loop
      vertex 0.927051 2.85317 2
      vertex 25 43.3013 2
      vertex 15.4508 47.5528 2
    endloop
  endfacet
  facet normal 0 0 1
    outer loop
      vertex 40.4509 -29.3893 2
      vertex 2.42705 -1.76336 2
      vertex 33.4565 -37.1572 2
    endloop
  endfacet
  facet normal 0 0 1
    outer loop
      vertex 0.927051 2.85317 2
      vertex 15.4508 47.5528 2
      vertex 5.22642 49.7261 2
    endloop
  endfacet
  facet normal 0 0 1
    outer loop
      vertex 33.4565 -37.1572 2
      vertex 2.42705 -1.76336 2
      vertex 25 -43.3013 2
    endloop
  endfacet
  facet normal -0 0 1
    outer loop
      vertex 0.927051 -2.85317 2
      vertex 25 -43.3013 2
      vertex 2.42705 -1.76336 2
    endloop
  endfacet
  facet normal 0 0 1
    outer loop
      vertex 45.6773 20.3368 2
      vertex 2.42705 1.76336 2
      vertex 3 0 2
    endloop
  endfacet
  facet normal 0 0 1
    outer loop
      vertex 25 43.3013 2
      vertex 0.927051 2.85317 2
      vertex 2.42705 1.76336 2
    endloop
  endfacet
  facet normal 0 0 1
    outer loop
      vertex 5.22642 49.7261 2
      vertex -0.927051 2.85317 2
      vertex 0.927051 2.85317 2
    endloop
  endfacet
  facet normal -0 0 1
    outer loop
      vertex -5.22642 49.7261 2
      vertex -0.927051 2.85317 2
      vertex 5.22642 49.7261 2
    endloop
  endfacet
  facet normal -0 0 1
    outer loop
      vertex -15.4508 47.5528 2
      vertex -0.927051 2.85317 2
      vertex -5.22642 49.7261 2
    endloop
  endfacet
  facet normal -0 0 1
    outer loop
      vertex -25 43.3013 2
      vertex -0.927051 2.85317 2
      vertex -15.4508 47.5528 2
    endloop
  endfacet
  facet normal 0 0 1
    outer loop
      vertex 25 -43.3013 2
      vertex 0.927051 -2.85317 2
      vertex 15.4508 -47.5528 2
    endloop
  endfacet
  facet normal 0 0 1
    outer loop
      vertex 15.4508 -47.5528 2
      vertex 0.927051 -2.85317 2
      vertex 5.22642 -49.7261 2
    endloop
  endfacet
  facet normal -0 0 1
    outer loop
      vertex -0.927051 -2.85317 2
      vertex 5.22642 -49.7261 2
      vertex 0.927051 -2.85317 2
    endloop
  endfacet
  facet normal 0 0 1
    outer loop
      vertex -25 -43.3013 2
      vertex -0.927051 -2.85317 2
      vertex -2.42705 -1.76336 2
    endloop
  endfacet
  facet normal 0 0 1
    outer loop
      vertex -45.6773 -20.3368 2
      vertex -2.42705 -1.76336 2
      vertex -3 0 2
    endloop
  endfacet
  facet normal 0 0 1
    outer loop
      vertex -0.927051 -2.85317 2
      vertex -5.22642 -49.7261 2
      vertex 5.22642 -49.7261 2
    endloop
  endfacet
  facet normal 0 0 1
    outer loop
      vertex -0.927051 2.85317 2
      vertex -25 43.3013 2
      vertex -2.42705 1.76336 2
    endloop
  endfacet
  facet normal -0 0 1
    outer loop
      vertex -33.4565 37.1572 2
      vertex -2.42705 1.76336 2
      vertex -25 43.3013 2
    endloop
  endfacet
  facet normal 0 0 1
    outer loop
      vertex -0.927051 -2.85317 2
      vertex -15.4508 -47.5528 2
      vertex -5.22642 -49.7261 2
    endloop
  endfacet
  facet normal -0 0 1
    outer loop
      vertex -40.4509 29.3893 2
      vertex -2.42705 1.76336 2
      vertex -33.4565 37.1572 2
    endloop
  endfacet
  facet normal 0 0 1
    outer loop
      vertex -0.927051 -2.85317 2
      vertex -25 -43.3013 2
      vertex -15.4508 -47.5528 2
    endloop
  endfacet
  facet normal -0 0 1
    outer loop
      vertex -45.6773 20.3368 2
      vertex -2.42705 1.76336 2
      vertex -40.4509 29.3893 2
    endloop
  endfacet
  facet normal 0 0 1
    outer loop
      vertex -2.42705 -1.76336 2
      vertex -33.4565 -37.1572 2
      vertex -25 -43.3013 2
    endloop
  endfacet
  facet normal 0 0 1
    outer loop
      vertex -2.42705 1.76336 2
      vertex -45.6773 20.3368 2
      vertex -3 0 2
    endloop
  endfacet
  facet normal 0 0 1
    outer loop
      vertex -2.42705 -1.76336 2
      vertex -40.4509 -29.3893 2
      vertex -33.4565 -37.1572 2
    endloop
  endfacet
  facet normal -0 0 1
    outer loop
      vertex -48.9074 10.3956 2
      vertex -3 0 2
      vertex -45.6773 20.3368 2
    endloop
  endfacet
  facet normal 0 0 1
    outer loop
      vertex -2.42705 -1.76336 2
      vertex -45.6773 -20.3368 2
      vertex -40.4509 -29.3893 2
    endloop
  endfacet
  facet normal 0 0 1
    outer loop
      vertex -50 0 2
      vertex -3 0 2
      vertex -48.9074 10.3956 2
    endloop
  endfacet
  facet normal 0 0 1
    outer loop
      vertex -3 0 2
      vertex -48.9074 -10.3956 2
      vertex -45.6773 -20.3368 2
    endloop
  endfacet
  facet normal 0 0 1
    outer loop
      vertex -3 0 2
      vertex -50 0 2
      vertex -48.9074 -10.3956 2
    endloop
  endfacet
  facet normal -0.587785 0.809017 0
    outer loop
      vertex -25 43.3013 0
      vertex -33.4565 37.1572 2
      vertex -25 43.3013 2
    endloop
  endfacet
  facet normal -0.587785 0.809017 0
    outer loop
      vertex -33.4565 37.1572 2
      vertex -25 43.3013 0
      vertex -33.4565 37.1572 0
    endloop
  endfacet
  facet normal -0.207912 0.978148 0
    outer loop
      vertex -5.22642 49.7261 0
      vertex -15.4508 47.5528 2
      vertex -5.22642 49.7261 2
    endloop
  endfacet
  facet normal -0.207912 0.978148 0
    outer loop
      vertex -15.4508 47.5528 2
      vertex -5.22642 49.7261 0
      vertex -15.4508 47.5528 0
    endloop
  endfacet
  facet normal 0.994522 -0.104529 0
    outer loop
      vertex 48.9074 -10.3956 2
      vertex 50 0 0
      vertex 50 0 2
    endloop
  endfacet
  facet normal 0.994522 -0.104529 0
    outer loop
      vertex 50 0 0
      vertex 48.9074 -10.3956 2
      vertex 48.9074 -10.3956 0
    endloop
  endfacet
  facet normal 0 0 -1
    outer loop
      vertex 3 0 0
      vertex 50 0 0
      vertex 48.9074 -10.3956 0
    endloop
  endfacet
  facet normal 0 0 -1
    outer loop
      vertex 3 0 0
      vertex 48.9074 -10.3956 0
      vertex 45.6773 -20.3368 0
    endloop
  endfacet
  facet normal 0 0 -1
    outer loop
      vertex 50 0 0
      vertex 3 0 0
      vertex 48.9074 10.3956 0
    endloop
  endfacet
  facet normal 0 0 -1
    outer loop
      vertex 2.42705 -1.76336 0
      vertex 45.6773 -20.3368 0
      vertex 40.4509 -29.3893 0
    endloop
  endfacet
  facet normal -0 0 -1
    outer loop
      vertex 48.9074 10.3956 0
      vertex 3 0 0
      vertex 45.6773 20.3368 0
    endloop
  endfacet
  facet normal 0 0 -1
    outer loop
      vertex 2.42705 -1.76336 0
      vertex 40.4509 -29.3893 0
      vertex 33.4565 -37.1572 0
    endloop
  endfacet
  facet normal 0 0 -1
    outer loop
      vertex 2.42705 1.76336 0
      vertex 45.6773 20.3368 0
      vertex 3 0 0
    endloop
  endfacet
  facet normal 0 0 -1
    outer loop
      vertex 2.42705 -1.76336 0
      vertex 33.4565 -37.1572 0
      vertex 25 -43.3013 0
    endloop
  endfacet
  facet normal -0 0 -1
    outer loop
      vertex 45.6773 20.3368 0
      vertex 2.42705 1.76336 0
      vertex 40.4509 29.3893 0
    endloop
  endfacet
  facet normal 0 0 -1
    outer loop
      vertex 0.927051 -2.85317 0
      vertex 25 -43.3013 0
      vertex 15.4508 -47.5528 0
    endloop
  endfacet
  facet normal -0 0 -1
    outer loop
      vertex 40.4509 29.3893 0
      vertex 2.42705 1.76336 0
      vertex 33.4565 37.1572 0
    endloop
  endfacet
  facet normal 0 0 -1
    outer loop
      vertex 0.927051 -2.85317 0
      vertex 15.4508 -47.5528 0
      vertex 5.22642 -49.7261 0
    endloop
  endfacet
  facet normal -0 0 -1
    outer loop
      vertex 33.4565 37.1572 0
      vertex 2.42705 1.76336 0
      vertex 25 43.3013 0
    endloop
  endfacet
  facet normal 0 0 -1
    outer loop
      vertex 0.927051 2.85317 0
      vertex 25 43.3013 0
      vertex 2.42705 1.76336 0
    endloop
  endfacet
  facet normal 0 0 -1
    outer loop
      vertex 45.6773 -20.3368 0
      vertex 2.42705 -1.76336 0
      vertex 3 0 0
    endloop
  endfacet
  facet normal 0 0 -1
    outer loop
      vertex 25 -43.3013 0
      vertex 0.927051 -2.85317 0
      vertex 2.42705 -1.76336 0
    endloop
  endfacet
  facet normal 0 0 -1
    outer loop
      vertex 5.22642 -49.7261 0
      vertex -0.927051 -2.85317 0
      vertex 0.927051 -2.85317 0
    endloop
  endfacet
  facet normal 0 0 -1
    outer loop
      vertex -5.22642 -49.7261 0
      vertex -0.927051 -2.85317 0
      vertex 5.22642 -49.7261 0
    endloop
  endfacet
  facet normal 0 0 -1
    outer loop
      vertex -15.4508 -47.5528 0
      vertex -0.927051 -2.85317 0
      vertex -5.22642 -49.7261 0
    endloop
  endfacet
  facet normal 0 0 -1
    outer loop
      vertex -25 -43.3013 0
      vertex -0.927051 -2.85317 0
      vertex -15.4508 -47.5528 0
    endloop
  endfacet
  facet normal -0 0 -1
    outer loop
      vertex 25 43.3013 0
      vertex 0.927051 2.85317 0
      vertex 15.4508 47.5528 0
    endloop
  endfacet
  facet normal -0 0 -1
    outer loop
      vertex 15.4508 47.5528 0
      vertex 0.927051 2.85317 0
      vertex 5.22642 49.7261 0
    endloop
  endfacet
  facet normal 0 0 -1
    outer loop
      vertex -0.927051 2.85317 0
      vertex 5.22642 49.7261 0
      vertex 0.927051 2.85317 0
    endloop
  endfacet
  facet normal 0 0 -1
    outer loop
      vertex -25 43.3013 0
      vertex -0.927051 2.85317 0
      vertex -2.42705 1.76336 0
    endloop
  endfacet
  facet normal 0 0 -1
    outer loop
      vertex -45.6773 20.3368 0
      vertex -2.42705 1.76336 0
      vertex -3 0 0
    endloop
  endfacet
  facet normal 0 0 -1
    outer loop
      vertex -0.927051 2.85317 0
      vertex -5.22642 49.7261 0
      vertex 5.22642 49.7261 0
    endloop
  endfacet
  facet normal -0 0 -1
    outer loop
      vertex -0.927051 -2.85317 0
      vertex -25 -43.3013 0
      vertex -2.42705 -1.76336 0
    endloop
  endfacet
  facet normal 0 0 -1
    outer loop
      vertex -33.4565 -37.1572 0
      vertex -2.42705 -1.76336 0
      vertex -25 -43.3013 0
    endloop
  endfacet
  facet normal 0 0 -1
    outer loop
      vertex -0.927051 2.85317 0
      vertex -15.4508 47.5528 0
      vertex -5.22642 49.7261 0
    endloop
  endfacet
  facet normal 0 0 -1
    outer loop
      vertex -40.4509 -29.3893 0
      vertex -2.42705 -1.76336 0
      vertex -33.4565 -37.1572 0
    endloop
  endfacet
  facet normal 0 0 -1
    outer loop
      vertex -0.927051 2.85317 0
      vertex -25 43.3013 0
      vertex -15.4508 47.5528 0
    endloop
  endfacet
  facet normal 0 0 -1
    outer loop
      vertex -45.6773 -20.3368 0
      vertex -2.42705 -1.76336 0
      vertex -40.4509 -29.3893 0
    endloop
  endfacet
  facet normal 0 0 -1
    outer loop
      vertex -2.42705 1.76336 0
      vertex -33.4565 37.1572 0
      vertex -25 43.3013 0
    endloop
  endfacet
  facet normal -0 0 -1
    outer loop
      vertex -2.42705 -1.76336 0
      vertex -45.6773 -20.3368 0
      vertex -3 0 0
    endloop
  endfacet
  facet normal 0 0 -1
    outer loop
      vertex -2.42705 1.76336 0
      vertex -40.4509 29.3893 0
      vertex -33.4565 37.1572 0
    endloop
  endfacet
  facet normal 0 0 -1
    outer loop
      vertex -48.9074 -10.3956 0
      vertex -3 0 0
      vertex -45.6773 -20.3368 0
    endloop
  endfacet
  facet normal 0 0 -1
    outer loop
      vertex -2.42705 1.76336 0
      vertex -45.6773 20.3368 0
      vertex -40.4509 29.3893 0
    endloop
  endfacet
  facet normal 0 0 -1
    outer loop
      vertex -50 0 0
      vertex -3 0 0
      vertex -48.9074 -10.3956 0
    endloop
  endfacet
  facet normal 0 0 -1
    outer loop
      vertex -3 0 0
      vertex -48.9074 10.3956 0
      vertex -45.6773 20.3368 0
    endloop
  endfacet
  facet normal 0 0 -1
    outer loop
      vertex -3 0 0
      vertex -50 0 0
      vertex -48.9074 10.3956 0
    endloop
  endfacet
  facet normal 0.743145 -0.669131 0
    outer loop
      vertex 33.4565 -37.1572 2
      vertex 40.4509 -29.3893 0
      vertex 40.4509 -29.3893 2
    endloop
  endfacet
  facet normal 0.743145 -0.669131 0
    outer loop
      vertex 40.4509 -29.3893 0
      vertex 33.4565 -37.1572 2
      vertex 33.4565 -37.1572 0
    endloop
  endfacet
  facet normal 0.951057 -0.309017 0
    outer loop
      vertex 45.6773 -20.3368 2
      vertex 48.9074 -10.3956 0
      vertex 48.9074 -10.3956 2
    endloop
  endfacet
  facet normal 0.951057 -0.309017 0
    outer loop
      vertex 48.9074 -10.3956 0
      vertex 45.6773 -20.3368 2
      vertex 45.6773 -20.3368 0
    endloop
  endfacet
  facet normal 0.866025 -0.5 0
    outer loop
      vertex 40.4509 -29.3893 2
      vertex 45.6773 -20.3368 0
      vertex 45.6773 -20.3368 2
    endloop
  endfacet
  facet normal 0.866025 -0.5 0
    outer loop
      vertex 45.6773 -20.3368 0
      vertex 40.4509 -29.3893 2
      vertex 40.4509 -29.3893 0
    endloop
  endfacet
  facet normal -0.866025 -0.5 0
    outer loop
      vertex -40.4509 -29.3893 0
      vertex -45.6773 -20.3368 2
      vertex -45.6773 -20.3368 0
    endloop
  endfacet
  facet normal -0.866025 -0.5 0
    outer loop
      vertex -45.6773 -20.3368 2
      vertex -40.4509 -29.3893 0
      vertex -40.4509 -29.3893 2
    endloop
  endfacet
  facet normal 0.587785 -0.809017 0
    outer loop
      vertex 25 -43.3013 0
      vertex 33.4565 -37.1572 2
      vertex 25 -43.3013 2
    endloop
  endfacet
  facet normal 0.587785 -0.809017 0
    outer loop
      vertex 33.4565 -37.1572 2
      vertex 25 -43.3013 0
      vertex 33.4565 -37.1572 0
    endloop
  endfacet
  facet normal -0.207912 -0.978148 0
    outer loop
      vertex -15.4508 -47.5528 0
      vertex -5.22642 -49.7261 2
      vertex -15.4508 -47.5528 2
    endloop
  endfacet
  facet normal -0.207912 -0.978148 -0
    outer loop
      vertex -5.22642 -49.7261 2
      vertex -15.4508 -47.5528 0
      vertex -5.22642 -49.7261 0
    endloop
  endfacet
  facet normal -0.406737 -0.913545 0
    outer loop
      vertex -25 -43.3013 0
      vertex -15.4508 -47.5528 2
      vertex -25 -43.3013 2
    endloop
  endfacet
  facet normal -0.406737 -0.913545 -0
    outer loop
      vertex -15.4508 -47.5528 2
      vertex -25 -43.3013 0
      vertex -15.4508 -47.5528 0
    endloop
  endfacet
  facet normal -0.743145 -0.669131 0
    outer loop
      vertex -33.4565 -37.1572 0
      vertex -40.4509 -29.3893 2
      vertex -40.4509 -29.3893 0
    endloop
  endfacet
  facet normal -0.743145 -0.669131 0
    outer loop
      vertex -40.4509 -29.3893 2
      vertex -33.4565 -37.1572 0
      vertex -33.4565 -37.1572 2
    endloop
  endfacet
  facet normal -0.951057 -0.309017 0
    outer loop
      vertex -45.6773 -20.3368 0
      vertex -48.9074 -10.3956 2
      vertex -48.9074 -10.3956 0
    endloop
  endfacet
  facet normal -0.951057 -0.309017 0
    outer loop
      vertex -48.9074 -10.3956 2
      vertex -45.6773 -20.3368 0
      vertex -45.6773 -20.3368 2
    endloop
  endfacet
  facet normal -0.994522 -0.104529 0
    outer loop
      vertex -48.9074 -10.3956 0
      vertex -50 0 2
      vertex -50 0 0
    endloop
  endfacet
  facet normal -0.994522 -0.104529 0
    outer loop
      vertex -50 0 2
      vertex -48.9074 -10.3956 0
      vertex -48.9074 -10.3956 2
    endloop
  endfacet
  facet normal 0.406737 -0.913545 0
    outer loop
      vertex 15.4508 -47.5528 0
      vertex 25 -43.3013 2
      vertex 15.4508 -47.5528 2
    endloop
  endfacet
  facet normal 0.406737 -0.913545 0
    outer loop
      vertex 25 -43.3013 2
      vertex 15.4508 -47.5528 0
      vertex 25 -43.3013 0
    endloop
  endfacet
  facet normal 0.207912 -0.978148 0
    outer loop
      vertex 5.22642 -49.7261 0
      vertex 15.4508 -47.5528 2
      vertex 5.22642 -49.7261 2
    endloop
  endfacet
  facet normal 0.207912 -0.978148 0
    outer loop
      vertex 15.4508 -47.5528 2
      vertex 5.22642 -49.7261 0
      vertex 15.4508 -47.5528 0
    endloop
  endfacet
  facet normal -0.587785 -0.809017 0
    outer loop
      vertex -33.4565 -37.1572 0
      vertex -25 -43.3013 2
      vertex -33.4565 -37.1572 2
    endloop
  endfacet
  facet normal -0.587785 -0.809017 -0
    outer loop
      vertex -25 -43.3013 2
      vertex -33.4565 -37.1572 0
      vertex -25 -43.3013 0
    endloop
  endfacet
  facet normal -0.951056 -0.309017 0
    outer loop
      vertex 3 0 0
      vertex 2.42705 1.76336 2
      vertex 2.42705 1.76336 0
    endloop
  endfacet
  facet normal -0.951056 -0.309017 0
    outer loop
      vertex 2.42705 1.76336 2
      vertex 3 0 0
      vertex 3 0 2
    endloop
  endfacet
  facet normal 0.951056 -0.309017 0
    outer loop
      vertex -3 0 2
      vertex -2.42705 1.76336 0
      vertex -2.42705 1.76336 2
    endloop
  endfacet
  facet normal 0.951056 -0.309017 0
    outer loop
      vertex -2.42705 1.76336 0
      vertex -3 0 2
      vertex -3 0 0
    endloop
  endfacet
  facet normal 0 1 -0
    outer loop
      vertex 0.927051 -2.85317 0
      vertex -0.927051 -2.85317 2
      vertex 0.927051 -2.85317 2
    endloop
  endfacet
  facet normal 0 1 0
    outer loop
      vertex -0.927051 -2.85317 2
      vertex 0.927051 -2.85317 0
      vertex -0.927051 -2.85317 0
    endloop
  endfacet
  facet normal 0 -1 0
    outer loop
      vertex -0.927051 2.85317 0
      vertex 0.927051 2.85317 2
      vertex -0.927051 2.85317 2
    endloop
  endfacet
  facet normal 0 -1 -0
    outer loop
      vertex 0.927051 2.85317 2
      vertex -0.927051 2.85317 0
      vertex 0.927051 2.85317 0
    endloop
  endfacet
  facet normal -0.587785 -0.809017 0
    outer loop
      vertex 0.927051 2.85317 0
      vertex 2.42705 1.76336 2
      vertex 0.927051 2.85317 2
    endloop
  endfacet
  facet normal -0.587785 -0.809017 -0
    outer loop
      vertex 2.42705 1.76336 2
      vertex 0.927051 2.85317 0
      vertex 2.42705 1.76336 0
    endloop
  endfacet
  facet normal 0.587785 -0.809017 0
    outer loop
      vertex -2.42705 1.76336 0
      vertex -0.927051 2.85317 2
      vertex -2.42705 1.76336 2
    endloop
  endfacet
  facet normal 0.587785 -0.809017 0
    outer loop
      vertex -0.927051 2.85317 2
      vertex -2.42705 1.76336 0
      vertex -0.927051 2.85317 0
    endloop
  endfacet
  facet normal -0.587785 0.809017 0
    outer loop
      vertex 2.42705 -1.76336 0
      vertex 0.927051 -2.85317 2
      vertex 2.42705 -1.76336 2
    endloop
  endfacet
  facet normal -0.587785 0.809017 0
    outer loop
      vertex 0.927051 -2.85317 2
      vertex 2.42705 -1.76336 0
      vertex 0.927051 -2.85317 0
    endloop
  endfacet
  facet normal 0.587785 0.809017 -0
    outer loop
      vertex -0.927051 -2.85317 0
      vertex -2.42705 -1.76336 2
      vertex -0.927051 -2.85317 2
    endloop
  endfacet
  facet normal 0.587785 0.809017 0
    outer loop
      vertex -2.42705 -1.76336 2
      vertex -0.927051 -2.85317 0
      vertex -2.42705 -1.76336 0
    endloop
  endfacet
  facet normal 0.951056 0.309017 0
    outer loop
      vertex -2.42705 -1.76336 2
      vertex -3 0 0
      vertex -3 0 2
    endloop
  endfacet
  facet normal 0.951056 0.309017 0
    outer loop
      vertex -3 0 0
      vertex -2.42705 -1.76336 2
      vertex -2.42705 -1.76336 0
    endloop
  endfacet
  facet normal -0.951056 0.309017 0
    outer loop
      vertex 2.42705 -1.76336 0
      vertex 3 0 2
      vertex 3 0 0
    endloop
  endfacet
  facet normal -0.951056 0.309017 0
    outer loop
      vertex 3 0 2
      vertex 2.42705 -1.76336 0
      vertex 2.42705 -1.76336 2
    endloop
  endfacet
endsolid OpenSCAD_Model
